<?xml version="1.0" encoding="utf-8"?>
<!-- Generator: Adobe Illustrator 23.0.0, SVG Export Plug-In . SVG Version: 6.00 Build 0)  -->
<svg version="1.1" id="Layer_1" xmlns="http://www.w3.org/2000/svg" xmlns:xlink="http://www.w3.org/1999/xlink" x="0px" y="0px"
	 viewBox="0 0 461 482.3" style="enable-background:new 0 0 461 482.3;" xml:space="preserve">
<style type="text/css">
	.st0{fill:url(#SVGID_1_);}
	.st1{fill:url(#SVGID_2_);}
	.st2{fill:url(#SVGID_3_);}
</style>
<linearGradient id="SVGID_1_" gradientUnits="userSpaceOnUse" x1="110.1473" y1="212.4702" x2="409.2544" y2="212.4702">
	<stop  offset="0.1323" style="stop-color:#ED683C"/>
	<stop  offset="0.3844" style="stop-color:#FFF33B"/>
	<stop  offset="0.406" style="stop-color:#FFE029"/>
	<stop  offset="0.4317" style="stop-color:#FFD218"/>
	<stop  offset="0.4582" style="stop-color:#FEC90F"/>
	<stop  offset="0.4865" style="stop-color:#FDC70C"/>
	<stop  offset="0.6685" style="stop-color:#F3903F"/>
	<stop  offset="1" style="stop-color:#E93E3A"/>
</linearGradient>
<path class="st0" d="M261.6,393.5h-4.3l-1.6-0.7c-1.5-0.7-36.4-16.3-71.8-41.8c-21.1-15.1-37.9-30.6-50-46
	c-15.8-20-23.7-40-23.7-59.4v-153l6.5-1.3c0.3,0,27.9-5.5,58.7-15c39.8-12.3,66.9-25.5,78.3-38.4l5.7-6.4l6.1,6
	c31.2,31.1,136.4,53.6,137.4,53.8l6.4,1.4v152.9c0,19.5-8,39.5-23.8,59.5c-12.2,15.4-29.1,30.9-50.2,46
	c-35.6,25.5-70.6,41.2-72.1,41.8L261.6,393.5z M126.3,105.7v139.8c0,36.4,36.4,70.3,66.9,92.2c28.4,20.5,57.3,34.7,66.3,39
	c9-4.3,38-18.5,66.5-39c30.6-21.9,67-55.8,67-92.2V105.6c-22.8-5.2-99-24.2-133.1-51.4c-15.2,13.2-42,25.8-80,37.5
	C157.1,98.8,136.5,103.6,126.3,105.7L126.3,105.7z"/>
<linearGradient id="SVGID_2_" gradientUnits="userSpaceOnUse" x1="259.7008" y1="326.7189" x2="259.7008" y2="88.4878">
	<stop  offset="0.2687" style="stop-color:#2484C6"/>
	<stop  offset="0.3715" style="stop-color:#2484C6"/>
	<stop  offset="1" style="stop-color:#FFFFFF;stop-opacity:0"/>
</linearGradient>
<path class="st1" d="M252.5,89c-0.5,0.3-1,0.7-1.1,0.9c-0.1,0.3-0.1,3.6,0.2,12.2c0.5,17.2,0.8,24.5,1.3,42.3
	c0.1,3.3,0.3,8.7,0.4,12.1c0.1,3.4,0.3,8.9,0.4,12.2c0.1,3.4,0.3,8.8,0.4,12s0.3,8.6,0.4,12c0.1,3.4,0.3,8.9,0.4,12.2
	c0.3,11,0.6,20,1.1,36.4c0.1,3.4,0.3,8.8,0.4,12c0.4,11.1,0.6,17.9,0.7,24.3c0.1,3.5,0.2,7.5,0.3,8.8l0.1,2.4l-0.5,0.2
	c-0.3,0.1-1.7,0.7-3,1.4c-1.4,0.7-2.9,1.3-3.3,1.5c-2.7,1.1-9.8,1.6-22.7,1.6H220v3.8c0,2.9,0.1,3.8,0.3,4.1
	c0.2,0.3-0.2,1.7-3.1,10.7c-1.8,5.7-3.3,10.6-3.3,10.8s-0.1,0.5-0.2,0.5c-0.3,0.1-0.1,2.9,0.2,3.2c0.2,0.2,88.3,0.3,90.7,0.1
	l1.2-0.1l0.1-0.7c0.2-1.6-0.4-3.6-4-13.8c-2-5.7-3.6-10.5-3.5-10.6c0.1-0.1,0.3-0.2,0.6-0.2h0.5v-3.8v-3.8H291
	c-10.5,0-16.7-0.3-20.3-1c-0.7-0.1-2.4-0.8-3.7-1.4c-1.3-0.6-2.9-1.4-3.5-1.6l-1.1-0.5l-0.1-1.1c-0.1-0.6-0.1-3-0.2-5.3
	c-0.1-2.3-0.2-6.7-0.3-9.8c-0.1-3.1-0.3-8.4-0.4-11.9c-0.4-12.9-0.6-18.6-0.7-24.3c-0.1-3.2-0.3-8.6-0.4-12
	c-0.1-3.3-0.3-8.9-0.4-12.2c-0.1-3.4-0.3-8.9-0.4-12.2c-0.1-3.3-0.3-8.8-0.4-12.1c-0.1-3.3-0.3-8.8-0.4-12
	c-0.1-3.3-0.4-11.4-0.6-18.1c-0.2-6.7-0.4-14.9-0.6-18.2s-0.3-8.8-0.4-12.1c-0.1-3.3-0.3-8.8-0.4-12.1c-0.1-3.4-0.3-8.8-0.4-12.1
	c-0.4-13.9-0.4-13-0.8-13.5c-0.5-0.6-1.7-1.3-2.1-1.3C253.5,88.5,252.9,88.7,252.5,89z M246.7,301.8c0,0.2-0.1,0.4-0.2,0.4
	c-0.1,0-0.2-0.2-0.2-0.4c0-0.2,0.1-0.4,0.2-0.4C246.6,301.4,246.7,301.6,246.7,301.8z M251.6,301.9c0,0.8-0.3,1.1-0.4,0.5
	c-0.1-0.6,0-1,0.2-1C251.5,301.4,251.6,301.6,251.6,301.9z M256.4,302.1c0,0.4-0.1,1-0.1,1.5c-0.1,0.7-0.1,0.7-0.3,0.3
	c-0.1-0.3-0.1-0.9-0.1-1.5c0-0.7,0-1,0.3-1C256.3,301.4,256.4,301.6,256.4,302.1z M261.3,302.6c0,1.6-0.2,2.2-0.4,1.2
	c-0.2-1.3-0.2-2.3,0.1-2.3C261.2,301.4,261.3,301.6,261.3,302.6z M266.1,302.9c0.1,1.6-0.2,2-0.4,0.6c-0.2-1.4-0.1-2.2,0.1-2.1
	C266,301.5,266.1,302,266.1,302.9z M270.8,302.3c0,0.5-0.1,0.8-0.2,0.7c-0.2-0.2-0.4-1.3-0.3-1.5
	C270.7,301.2,270.8,301.5,270.8,302.3z M275.6,302.1c-0.1,0.3-0.1,0.3-0.3,0c-0.2-0.4,0-0.8,0.2-0.5
	C275.6,301.7,275.7,301.9,275.6,302.1z M280.3,301.8c0,0.1,0,0.2-0.1,0.2c-0.1,0-0.1-0.1-0.2-0.2c-0.1-0.1,0-0.2,0.1-0.2
	C280.2,301.6,280.3,301.7,280.3,301.8z"/>
<linearGradient id="SVGID_3_" gradientUnits="userSpaceOnUse" x1="266.239" y1="398.7345" x2="266.239" y2="432.3628">
	<stop  offset="6.256969e-02" style="stop-color:#2484C6"/>
	<stop  offset="0.4832" style="stop-color:#2484C6;stop-opacity:0"/>
</linearGradient>
<ellipse class="st2" cx="266.2" cy="415.5" rx="136.7" ry="16.8"/>
</svg>
